<?xml version="1.0" standalone="no"?><svg xmlns="http://www.w3.org/2000/svg" viewBox="0 0 1440 320"><path fill="#0071A8" fill-opacity="1" d="M0,224L34.3,192C68.6,160,137,96,206,58.7C274.3,21,343,11,411,26.7C480,43,549,85,617,122.7C685.7,160,754,192,823,202.7C891.4,213,960,203,1029,186.7C1097.1,171,1166,149,1234,144C1302.9,139,1371,149,1406,154.7L1440,160L1440,0L1405.7,0C1371.4,0,1303,0,1234,0C1165.7,0,1097,0,1029,0C960,0,891,0,823,0C754.3,0,686,0,617,0C548.6,0,480,0,411,0C342.9,0,274,0,206,0C137.1,0,69,0,34,0L0,0Z"></path></svg>