<svg xmlns="http://www.w3.org/2000/svg" width="263" height="246" fill="none" viewBox="0 0 263 246">
  <path fill="#FDD231" fill-rule="evenodd" d="M90.409 3.174c-.585 1.907-.916 5.784-.737 8.614.24 3.797-.033 4.742-1.04 3.604-1.025-1.16-1.37-.298-1.386 3.455-.016 4.179.33 4.895 2.11 4.364 1.638-.49 1.904-.218 1.152 1.177-2.152 3.989-2.164 6.564-.043 9.085 1.563 1.857 1.822 3.024.869 3.917-.941.883-.793 2.116.485 4.036 1.33 1.995 1.502 3.68.623 6.07-.737 2.001-.74 3.535-.006 3.888 1.273.613 3.177 10.106 2.884 14.368-.094 1.371.721 3.555 1.814 4.854 2.333 2.772 2.587 7.87.542 10.847-.975 1.421-1.01 2.44-.103 3.145.738.575 1.056 1.624.707 2.331-1.142 2.318 3.657 2.74 6.11.537 1.27-1.14 3.018-2.074 3.884-2.074.867 0 1.229-.437.805-.972-.424-.534 1.919-2.198 5.208-3.7 3.289-1.501 5.979-3.093 5.979-3.535 0-.444 3.419-2.831 7.6-5.305 4.179-2.474 10.471-6.583 13.98-9.133 3.508-2.549 7.821-5.228 9.581-5.954 1.761-.726 3.201-1.654 3.201-2.062 0-.409 3.586-4.658 7.968-9.442 4.381-4.785 7.683-9.276 7.336-9.981-.347-.704.561-1.576 2.017-1.937 1.457-.359 2.424-1.194 2.149-1.854-.741-1.782-11.842-5.934-14.515-5.43-1.274.24-1.98.013-1.569-.504.411-.518-.332-1.249-1.651-1.624-1.317-.375-3.803-1.524-5.525-2.553-1.721-1.027-3.612-1.636-4.203-1.351-.592.284-1.448.046-1.906-.53-.456-.575-1.707-1.045-2.779-1.045-1.072 0-3.685-1.384-5.806-3.074-4.672-3.723-11.79-7.211-14.725-7.216-1.183-.002-2.913-.72-3.846-1.596-.932-.875-2.491-1.353-3.465-1.061-.985.294-1.771-.142-1.771-.982 0-.832-.447-1.437-.992-1.347-.544.092-2.775-.424-4.956-1.146-2.18-.721-6.43-1.546-9.442-1.83-5.317-.506-5.509-.42-6.538 2.946zm1.685 28.882c-.422.82-.735.576-.799-.623-.056-1.085.255-1.692.694-1.35.439.341.487 1.23.105 1.973zm115.398 8.913c0 1.612.389 7.194.863 12.406l.865 9.475 4.752-.31c3.548-.232 4.726-.767 4.644-2.111-.06-.99-.21-6.434-.33-12.096l-.221-10.294h-5.286c-4.93 0-5.287.197-5.287 2.93zM0 82.819v31.397h10.517l.717-40.102 27.706 28.752c15.24 15.814 27.804 28.659 27.924 28.543.12-.114.648-17.231 1.172-38.039l.956-37.831H58.15l-.156 25.478c-.087 14.014-.087 25.826 0 26.25.086.425-.29.758-.835.741-.98-.031-49.381-49.275-53.171-54.095-1.077-1.37-2.415-2.492-2.974-2.492C.457 51.421 0 65.551 0 82.82zm239.872-22.246c-16.559 5.953-18.914 20.78-6.567 41.355 5.632 9.388 7.098 14.846 5.085 18.933-1.349 2.739-7.831 4.679-15.633 4.679h-7.335v7.206h8.31c6.014 0 9.92-.641 14.131-2.317 8.638-3.438 11.268-6.832 11.223-14.487-.03-5.274-.988-7.955-5.621-15.724-6.259-10.5-8.968-19.11-7.687-24.43 1.848-7.677 10.023-11.612 17.697-8.52 3.66 1.473 4.05 1.428 6.705-.774 1.551-1.286 2.82-2.677 2.82-3.093 0-1.191-10.878-4.729-14.538-4.729-1.817 0-5.683.856-8.59 1.9zm-71.084 3.839c-.52.404-.944 13.86-.944 29.902v29.167h10.573v-9.059c0-8.367 1.126-11.53 4.106-11.53.514 0 3.771 5.559 7.236 12.353 3.467 6.795 7.051 12.353 7.967 12.353.916 0 3.145-.438 4.956-.974l3.291-.975-7.249-14.029c-8.099-15.674-8.142-15.19 1.724-19.694 3.148-1.436 5.723-2.777 5.723-2.98 0-1.282-3.274-5.613-4.243-5.613-2.508 0-9.939 3.554-16.538 7.91l-6.903 4.557-.731-31.51-4.012-.307c-2.207-.168-4.437.025-4.956.429zm-16.477 27.15c-10.306 5.36-25.446 17.835-29.449 24.265-8.487 13.632-2.832 29.097 12.824 35.062 8.363 3.187 16.083 3.035 28.193-.556 11.168-3.311 11.35-3.47 8.013-6.986l-2.872-3.025-6.728 2.594c-13.5 5.204-25.198 3.081-30.71-5.574-6.976-10.953 1.587-25.214 22.432-37.355 4.546-2.648 9.313-5.301 10.592-5.895 2.219-1.03 2.218-1.208-.013-3.86-1.287-1.53-2.798-2.781-3.358-2.781s-4.577 1.85-8.924 4.112zm-65.746 4.053c-10.455.421-14.5.947-14.405 1.873.073.708.222 2.213.33 3.346.183 1.894 1.146 2.058 12.055 2.058h11.854l-.705 15.184c-1.002 21.557.079 19.817-12.303 19.817-10.285 0-10.403.03-11.107 2.831-.393 1.556-.313 3.131.176 3.498.489.367 11 .83 23.357 1.029l22.467.362v-7.206l-14.102-.628.752-8.436c.414-4.639.91-14.226 1.104-21.304.334-12.253.225-12.87-2.292-12.938-1.454-.04-9.185.192-17.18.514zM26.432 142.01l-7.269.515-.694 74.633h7.963v-41.923l7.367-.674c12.587-1.152 20.94-4.854 25.138-11.139 2.26-3.382 2.41-10.074.308-13.668-3.41-5.83-16.434-8.904-32.813-7.744zm14.689 5.144c11.99 1.728 16.17 7.864 10.387 15.249-3.029 3.871-9.207 6.225-18.617 7.093l-6.459.596v-11.381c0-13.613.065-13.665 14.689-11.557zm42.348 13.901c.313 3.071-.052 4.632-1.081 4.632-.854 0-2.456.27-3.558.599-1.53.457-2.128-.333-2.53-3.345-.288-2.17-.54-.008-.559 4.805-.022 5.813.236 7.368.77 4.632.69-3.541 1.312-4.163 4.438-4.443 3.252-.292 3.634 0 3.634 2.771 0 1.702.689 3.426 1.53 3.832 1.125.542 1.303-.738.673-4.829-.473-3.061-.864-7.303-.87-9.426-.006-2.123-.666-3.861-1.467-3.861-.913 0-1.278 1.725-.98 4.633zm36.659-.173c-1.067 1.823-.902 3.337.688 6.302 2.789 5.196 2.647 6.36-.88 7.242-2.585.646-2.663.808-.597 1.235 2.725.562 6.214-1.332 6.214-3.374 0-.761-1.018-3.045-2.262-5.076-2.505-4.092-1.16-7.439 2.768-6.883 1.175.166 2.137-.181 2.137-.772 0-2.208-6.64-1.117-8.068 1.326zm-17.769 3.248c-1.138 5.905.033 9.483 3.372 10.308 6.567 1.624 11.436-3.596 9.778-10.482-1.197-4.965-2.96-4.191-2.213.971.487 3.357.019 4.981-1.993 6.915-2.338 2.249-2.881 2.365-4.919 1.047-1.859-1.201-2.161-2.6-1.599-7.429.814-6.991-1.131-8.058-2.426-1.33zm70.862-.631c-.778 1.129-1.412 3.435-1.412 5.123 0 1.688-.743 3.34-1.652 3.671-1.322.48-1.322.72 0 1.2.909.331 1.652 2.184 1.652 4.118 0 1.935.595 3.517 1.322 3.517.727 0 1.321-1.621 1.321-3.603 0-2.515.598-3.603 1.983-3.603 1.09 0 1.982-.463 1.982-1.029 0-.566-.892-1.029-1.982-1.029-2.3 0-2.745-5.738-.641-8.236 1.086-1.288 1.436-1.16 2.117.772.448 1.275 1.381 2.317 2.074 2.317.692 0 1.069-1.042.837-2.317-.563-3.087-5.684-3.694-7.601-.901zm28.985 1.51c0 2.069.842 2.715 4.295 3.296 12.078 2.03 22.446 10.093 26.653 20.725.868 2.194.685 2.229-8.847 1.667-11.512-.677-14.89.38-17.652 5.529-4.84 9.022 7.723 18.552 28.071 21.298l4.104.552.844-8.437c1.567-15.689 1.085-21.402-2.28-26.966-6.307-10.432-17.1-17.255-30.893-19.53-3.943-.649-4.295-.497-4.295 1.866zm-111.537-.044c-1.562.891-2.2 2.355-1.904 4.376.359 2.462 1.148 3.1 4.157 3.369 4.507.402 7.52-1.348 7.52-4.369 0-4.289-5.085-6.045-9.773-3.376zm66.146.546c-4.122 3.547-1.825 7.382 4.421 7.382 4.155 0 6.608-1.719 6.608-4.632 0-4.549-6.93-6.278-11.029-2.75zm-57.694 2.839c0 1.834-4.559 3.667-7.174 2.885-3.397-1.015-2.2-4.676 1.887-5.77 2.37-.634 5.287.957 5.287 2.885zm32-2.469c-.882.685-1.603 2.081-1.603 3.1 0 1.019-.492 1.853-1.093 1.853-2.16 0 .138 6.258 2.689 7.32 2.775 1.157 10.298-.521 10.298-2.297 0-1.207-.872-1.141-3.807.287-5.714 2.779-9.252-2.165-4.037-5.642 2.759-1.841 3.047-4.861.526-5.515-.754-.195-2.093.207-2.973.894zm34.08 2.38c0 2.536-2.753 3.9-5.947 2.946-2.673-.799-2.517-4.156.251-5.361 3.185-1.389 5.696-.325 5.696 2.415zm-31.719 0c0 .849-.576 1.544-1.28 1.544-.703 0-.937-.695-.52-1.544.419-.85.996-1.544 1.281-1.544.285 0 .519.694.519 1.544zm-75 16.762c-12.018.234-14.869.58-14.869 1.801 0 1.217 2.345 1.51 12.09 1.51h12.09l-.848 8.493c-.467 4.671-.853 10.23-.857 12.353l-.008 3.86H54.847c-9.105 0-11.234.293-11.234 1.545 0 1.31 3.304 1.544 21.807 1.544 18.502 0 21.806-.234 21.806-1.544 0-1.186-1.692-1.545-7.3-1.545h-7.3l.73-8.492c.402-4.671 1.01-10.897 1.355-13.836.343-2.938.178-5.485-.368-5.661-.547-.175-7.684-.189-15.862-.028zm32.709 5.37h32.34l-16.17 12.625c-8.893 6.945-16.171 12.85-16.171 13.125-.002.275 11.446.269 25.441-.014 25.15-.509 25.447-.542 25.865-2.831.419-2.304.326-2.316-17.842-2.367l-18.265-.05 34.362-25.602-49.56-.033v5.147zm58.151 0l32.379.094-16.878 12.563c-9.282 6.91-16.865 12.796-16.852 13.079.015.283 11.624.38 25.799.215l25.773-.3v-5.174l-17.845.313c-9.814.172-17.843.276-17.841.231.001-.044 7.586-5.946 16.853-13.114l16.85-13.032-48.238-.022v5.147zm77.207 5.307l7.603 1.19-.923 7.303c-.507 4.016-1.114 7.465-1.346 7.664-1.052.892-9.723-2.208-14.184-5.072-5.429-3.486-6.568-7.755-2.844-10.657 2.482-1.932 2.153-1.921 11.694-.428zM26.626 227.337c-1.395.689-1.457 1.365-.284 3.073.828 1.204 2.08 2.19 2.78 2.19.701 0 1.28.579 1.286 1.286.015 1.978 6.068 3.861 7.879 2.45 1.081-.842 1.72-.84 2.408.006 1.065 1.312 8.025 2.285 19.108 2.672 4.18.146 7.599.517 7.599.825 0 .308 5.296.542 11.768.52 6.473-.021 11.505-.37 11.184-.774-.32-.404 1.502-.057 4.05.772 5.311 1.729 10.548 1.996 9.342.478-.449-.566-.222-1.03.505-1.03s1.702.479 2.166 1.065c.517.651 4.364.86 9.931.538 4.998-.289 9.428-.095 9.846.431.877 1.105 21.908.191 23.613-1.028.62-.442 2.211-.082 3.535.801 2.592 1.729 15.468 2.584 41.263 2.739 7.814.048 14.208.322 14.208.609.001.287 2.677.356 5.948.154 6.072-.377 8.359-2.15 2.974-2.306-1.636-.047-4.46-.308-6.278-.577-4.887-.727-13.249-.723-18.502.01l-4.626.646 4.295-1.056c2.362-.58 4.296-1.561 4.296-2.181 0-.8-.492-.808-1.697-.03-1.017.658-2.443.737-3.563.199-1.099-.529-2.895-.471-4.364.142-1.373.572-2.892.708-3.376.302-.482-.407-.133-.947.775-1.199.909-.253 1.652-.938 1.652-1.521 0-.585-1.466-.314-3.258.6-4.13 2.108-9.136 2.131-11.35.052-1.089-1.022-2.839-1.391-4.788-1.009-1.689.33-3.072.229-3.072-.223 0-.453-2.676-.779-5.947-.726-4.094.067-5.947-.324-5.947-1.255 0-1.74-1.501-1.715-4.646.076-2.154 1.226-2.945 1.204-5.607-.154-2.86-1.459-3.242-1.423-4.936.462-1.375 1.527-2.889 1.921-6.014 1.564-2.942-.336-3.647-.736-2.389-1.351.982-.48 2.97-.586 4.418-.234 2.355.572 2.434.454.759-1.119-1.98-1.859-7.836-1.461-9.508.645-.472.594-1.548.749-2.391.342-1.044-.503-1.109-1.136-.202-1.988 1-.938.141-1.275-3.445-1.354-2.785-.062-4.082.229-3.109.698.917.441 1.159 1.048.537 1.347-1.81.87-19.207.016-24.1-1.184-3.16-.774-5.236-.772-7.106.008-1.562.651-2.979.717-3.465.16-.454-.518-2.013-.97-3.467-1.004-1.454-.035-4.997-.33-7.873-.657-2.88-.329-5.972-.117-6.881.471-.907.587-2.27.768-3.03.403-.758-.366-1.38-.158-1.38.462 0 .811-.746.815-2.67.013-1.468-.612-3.253-.833-3.965-.49-.711.343-1.294.074-1.294-.596 0-.805-1.345-1.009-3.965-.601-2.18.34-3.965.203-3.965-.305 0-.752-5.805-2.329-9.471-2.571-.484-.032-1.327-.406-1.872-.83-1.26-.982-2.1-.954-4.322.142zm114.532 9.457c-.26.609-1.037 1.107-1.728 1.107-.692 0-1.469-.498-1.729-1.107-.26-.608.517-1.106 1.729-1.106 1.212 0 1.989.498 1.728 1.106zm82.729 7.304c-2.379 2.109-2.384 2.195-.096 1.544 1.33-.38 4.156-.689 6.277-.689 2.121 0 3.857-.495 3.857-1.099 0-.631-1.128-.82-2.644-.446-1.515.375-2.643.186-2.643-.445 0-1.761-2.034-1.276-4.751 1.135z" clip-rule="evenodd"/>
</svg>
